<svg width="25" height="32" viewBox="0 0 25 32" fill="none" xmlns="http://www.w3.org/2000/svg">
<g clip-path="url(#clip0_8_730)">
<path fill-rule="evenodd" clip-rule="evenodd" d="M19.5 6.25H6C5.17157 6.25 4.5 6.92157 4.5 7.75V24.25C4.5 25.0784 5.17157 25.75 6 25.75H19.5C20.3284 25.75 21 25.0784 21 24.25V7.75C21 6.92157 20.3284 6.25 19.5 6.25ZM9 22.75C8.37868 22.75 7.875 22.2463 7.875 21.625C7.875 21.0037 8.37868 20.5 9 20.5C9.62132 20.5 10.125 21.0037 10.125 21.625C10.125 22.2463 9.62132 22.75 9 22.75ZM9 19C8.37868 19 7.875 18.4963 7.875 17.875C7.875 17.2537 8.37868 16.75 9 16.75C9.62132 16.75 10.125 17.2537 10.125 17.875C10.125 18.4963 9.62132 19 9 19ZM12.75 22.75C12.1287 22.75 11.625 22.2463 11.625 21.625C11.625 21.0037 12.1287 20.5 12.75 20.5C13.3713 20.5 13.875 21.0037 13.875 21.625C13.875 22.2463 13.3713 22.75 12.75 22.75ZM12.75 19C12.1287 19 11.625 18.4963 11.625 17.875C11.625 17.2537 12.1287 16.75 12.75 16.75C13.3713 16.75 13.875 17.2537 13.875 17.875C13.875 18.4963 13.3713 19 12.75 19ZM16.5 22.75C15.8787 22.75 15.375 22.2463 15.375 21.625C15.375 21.0037 15.8787 20.5 16.5 20.5C17.1213 20.5 17.625 21.0037 17.625 21.625C17.625 22.2463 17.1213 22.75 16.5 22.75ZM16.5 19C15.8787 19 15.375 18.4963 15.375 17.875C15.375 17.2537 15.8787 16.75 16.5 16.75C17.1213 16.75 17.625 17.2537 17.625 17.875C17.625 18.4963 17.1213 19 16.5 19ZM18 13.75C18 14.1642 17.6642 14.5 17.25 14.5H8.25C7.83579 14.5 7.5 14.1642 7.5 13.75V10C7.5 9.58579 7.83579 9.25 8.25 9.25H17.25C17.6642 9.25 18 9.58579 18 10V13.75Z" fill="currentColor"/>
</g>
<defs>
<clipPath id="clip0_8_730">
<rect width="24" height="24" fill="white" transform="translate(0.75 4)"/>
</clipPath>
</defs>
</svg>
